<?xml version="1.0" encoding="UTF-8" standalone="no"?>
<!-- Created with Inkscape (http://www.inkscape.org/) -->

<svg
   width="6mm"
   height="6.0000052mm"
   viewBox="0 0 6 6.0000055"
   version="1.1"
   id="svg1"
   xml:space="preserve"
   xmlns="http://www.w3.org/2000/svg"
   xmlns:svg="http://www.w3.org/2000/svg"><defs
     id="defs1" /><rect
     style="vector-effect:non-scaling-stroke;fill:none;fill-opacity:1;stroke:none;stroke-width:0.321197;stroke-linecap:round;stroke-linejoin:round;stroke-dasharray:none;stroke-dashoffset:0;stroke-opacity:1;-inkscape-stroke:hairline;paint-order:stroke fill markers"
     id="rect157"
     width="6"
     height="6"
     x="6.9665944e-08"
     y="1.0867342e-05" /><g
     id="g157"
     transform="translate(2.8245435,-168.73485)"><path
       id="path89-4-4-7-5"
       style="font-size:4.40972px;line-height:0.8;font-family:Comfortaa;-inkscape-font-specification:Comfortaa;text-align:end;letter-spacing:0.206375px;word-spacing:0px;text-anchor:end;vector-effect:non-scaling-stroke;fill:#d55151;stroke-width:0.264583;stroke-linecap:round;stroke-linejoin:round;-inkscape-stroke:hairline;paint-order:stroke fill markers"
       d="m -0.9743651,171.81876 c 0.02609,0 0.05159,6.9e-4 0.077,0.002 0.0254,0.001 0.05073,0.003 0.07545,0.006 0.02472,0.003 0.04883,0.006 0.07286,0.0103 0.02403,0.004 0.04797,0.009 0.07131,0.0145 0.02334,0.006 0.04659,0.0117 0.06925,0.0186 0.02265,0.007 0.0447,0.0145 0.06666,0.0227 0.02196,0.008 0.04384,0.0172 0.06511,0.0269 0.02127,0.01 0.04195,0.02 0.06253,0.031 0.02058,0.0107 0.04047,0.0222 0.05994,0.0341 0.01948,0.0119 0.03847,0.0245 0.05684,0.0377 0.01838,0.0132 0.03647,0.0268 0.05374,0.0413 0.01727,0.0145 0.03395,0.0297 0.05013,0.0455 0.01617,0.0158 0.03144,0.0325 0.04651,0.0496 0.01507,0.0171 0.02996,0.0349 0.04393,0.0532 -0.01396,-0.0184 -0.02886,-0.0361 -0.04393,-0.0532 -0.01507,-0.0171 -0.03034,-0.0338 -0.04651,-0.0496 -0.01617,-0.0158 -0.03285,-0.031 -0.05013,-0.0455 -0.01727,-0.0145 -0.03537,-0.0281 -0.05374,-0.0413 -0.01838,-0.0132 -0.03737,-0.0258 -0.05684,-0.0377 -0.01948,-0.0119 -0.03937,-0.0234 -0.05994,-0.0341 -0.02058,-0.011 -0.04126,-0.0213 -0.06253,-0.031 -0.02127,-0.01 -0.04315,-0.0186 -0.06511,-0.0269 -0.02196,-0.008 -0.04401,-0.0159 -0.06666,-0.0227 -0.02265,-0.007 -0.0459,-0.0131 -0.06925,-0.0186 -0.02334,-0.006 -0.04728,-0.0103 -0.07131,-0.0145 -0.02403,-0.004 -0.04814,-0.008 -0.07286,-0.0103 -0.02472,-0.003 -0.05004,-0.005 -0.07545,-0.006 -0.02541,-0.001 -0.05091,-0.002 -0.077,-0.002 z m 0,0 c -0.191088,0 -0.364572,0.0429 -0.520382,0.12816 -0.109468,0.0578 -0.203158,0.13194 -0.282153,0.22169 v -0.15141 c 0,-0.0529 -0.01624,-0.0941 -0.04858,-0.12351 -0.0294,-0.0323 -0.06888,-0.0481 -0.118856,-0.0481 -0.05292,0 -0.09582,0.0157 -0.128158,0.0481 -0.0294,0.0294 -0.04392,0.0706 -0.04392,0.12351 v 2.07274 c 0,0.05 0.01451,0.0912 0.04392,0.12351 0.03234,0.0294 0.07524,0.0439 0.128158,0.0439 0.04998,0 0.08946,-0.0145 0.118856,-0.0439 0.03234,-0.0323 0.04858,-0.0735 0.04858,-0.12351 v -1.30534 c 0,-0.12347 0.03367,-0.23372 0.101285,-0.33073 0.06761,-0.097 0.159233,-0.17359 0.273886,-0.22945 0.11759,-0.0558 0.248173,-0.0837 0.392224,-0.0837 0.14993,0 0.283933,0.0296 0.401526,0.0884 0.12053,0.0588 0.214537,0.147 0.282153,0.26459 0.07056,0.11759 0.10542,0.26732 0.10542,0.44958 v 1.1467 c 0,0.047 0.01624,0.0865 0.04858,0.11886 0.03234,0.0323 0.07353,0.0486 0.123506,0.0486 0.04704,0 0.08703,-0.0162 0.119373,-0.0486 0.03234,-0.0323 0.04858,-0.0718 0.04858,-0.11886 v -0.99167 -0.15503 c 0,-0.0301 -5.46e-4,-0.0594 -0.0021,-0.0884 0.0015,0.0288 0.0021,0.0584 0.0021,0.0884 v -1.12448 z m 0.911572,0.45062 c 0.01286,0.0197 0.02493,0.04 0.03669,0.061 0.01213,0.021 0.02349,0.0425 0.03411,0.0646 0.01062,0.0221 0.02035,0.045 0.02946,0.0682 0.0091,0.0232 0.01773,0.0469 0.02532,0.0713 0.0076,0.0244 0.01408,0.0494 0.02015,0.0749 0.0061,0.0255 0.01146,0.0513 0.01602,0.078 0.0046,0.0267 0.0083,0.0538 0.01137,0.0816 -0.003,-0.0276 -0.0068,-0.0551 -0.01137,-0.0816 -0.0046,-0.0267 -0.0099,-0.0525 -0.01602,-0.078 -0.0061,-0.0255 -0.01256,-0.0505 -0.02015,-0.0749 -0.0076,-0.0244 -0.01622,-0.0481 -0.02532,-0.0713 -0.0091,-0.0232 -0.01884,-0.0461 -0.02946,-0.0682 -0.01062,-0.0221 -0.02198,-0.0436 -0.03411,-0.0646 -0.01176,-0.0209 -0.02383,-0.0413 -0.03669,-0.061 z m 0.173116,0.50023 c 0.003,0.0277 0.0057,0.0559 0.0072,0.0847 -0.0015,-0.0288 -0.0042,-0.0571 -0.0072,-0.0847 z" /><path
       d="m 0.5696419,171.52318 c -0.04583,0.002 -0.08389,0.0187 -0.114205,0.0491 -0.0294,0.0323 -0.04393,0.0735 -0.04393,0.1235 v 0.12299 0.29559 0.26459 0.4563 0.11472 0.4563 c 0,0.16463 0.03486,0.31197 0.10542,0.44132 0.07056,0.12641 0.166273,0.22623 0.286805,0.29972 0.123469,0.0735 0.263288,0.11007 0.419095,0.11007 h 0.05943 0.0124 0.02067 c 0.0033,0 0.0066,1.2e-4 0.0098,0 h 0.116272 0.251664 0.341064 c 0.04431,0 0.08105,-0.0156 0.110588,-0.046 0.02954,-0.0338 0.04496,-0.0742 0.04496,-0.12144 0,-0.0507 -0.01542,-0.091 -0.04496,-0.12144 -0.02954,-0.0338 -0.06628,-0.0506 -0.110588,-0.0506 h -0.341064 -0.251664 -0.09095 c -0.0029,-1.3e-4 -0.0058,0 -0.0088,0 h -0.04702 -0.0124 -0.05943 c -0.138168,0 -0.251324,-0.047 -0.339514,-0.14108 -0.08819,-0.097 -0.132291,-0.22058 -0.132291,-0.37052 v -0.4563 -0.11472 -0.4563 -0.26459 h 0.289388 0.254248 0.243912 c 0.0441,0 0.08067,-0.0133 0.110071,-0.0398 0.0294,-0.0294 0.04444,-0.0648 0.04444,-0.10594 0,-0.0441 -0.01504,-0.079 -0.04444,-0.10542 -0.0294,-0.0294 -0.06597,-0.0444 -0.110071,-0.0444 h -0.243912 -0.254248 -0.289388 v -0.12299 c 0,-0.05 -0.01624,-0.0912 -0.04858,-0.1235 -0.03234,-0.0323 -0.07353,-0.0491 -0.123507,-0.0491 -0.0031,0 -0.0062,-1.3e-4 -0.0093,0 z"
       style="font-size:4.40972px;line-height:0.8;font-family:Comfortaa;-inkscape-font-specification:Comfortaa;text-align:end;letter-spacing:0.206375px;word-spacing:0px;text-anchor:end;vector-effect:non-scaling-stroke;fill:#d55151;stroke-width:0.264583;stroke-linecap:round;stroke-linejoin:round;-inkscape-stroke:hairline;paint-order:stroke fill markers"
       id="path132-1-1" /><path
       id="path62-2-3-9-3"
       style="font-size:4.40972px;line-height:0.8;font-family:Comfortaa;-inkscape-font-specification:Comfortaa;text-align:end;letter-spacing:0.206375px;word-spacing:0px;text-anchor:end;vector-effect:non-scaling-stroke;fill:#d55151;stroke-width:0.264583;stroke-linecap:round;stroke-linejoin:round;-inkscape-stroke:hairline;paint-order:stroke fill markers"
       d="m 2.4344009,169.11103 c -0.02131,-7.3e-4 -0.04306,0.002 -0.06511,0.01 -0.04116,0.0118 -0.07021,0.0384 -0.08785,0.0796 l -0.836641,1.83607 -0.848011,-1.83607 c -0.02058,-0.0382 -0.05015,-0.0649 -0.08837,-0.0796 -0.03822,-0.0147 -0.0777,-0.0115 -0.118856,0.009 -0.0441,0.0206 -0.07367,0.0502 -0.08837,0.0884 -0.0147,0.0382 -0.01304,0.0765 0.0047,0.11472 l 0.978752,2.07688 c 0.03528,0.0764 0.08809,0.11472 0.158646,0.11472 0.07644,0 0.132154,-0.0383 0.167432,-0.11472 l 0.965833,-2.08153 c 0.01764,-0.0353 0.0193,-0.0719 0.0046,-0.11007 -0.0147,-0.0412 -0.04256,-0.0719 -0.08371,-0.0925 -0.02058,-0.009 -0.04173,-0.0137 -0.06305,-0.0145 z" /><path
       id="path156-6"
       style="font-size:4.40972px;line-height:0.8;font-family:Comfortaa;-inkscape-font-specification:Comfortaa;text-align:end;letter-spacing:0.206375px;word-spacing:0px;text-anchor:end;vector-effect:non-scaling-stroke;fill:#d55151;stroke-width:0.264583;stroke-linecap:round;stroke-linejoin:round;-inkscape-stroke:hairline;paint-order:stroke fill markers"
       d="m -0.9616984,169.06875 c -0.2263636,0 -0.4265148,0.0528 -0.5999634,0.15865 -0.1734486,0.10584 -0.3103571,0.25146 -0.4103109,0.43667 -0.093978,0.17657 -0.141775,0.38113 -0.144694,0.61288 v 0.0398 c 0.0025,0.23093 0.053661,0.43695 0.1539958,0.61753 0.1058328,0.18521 0.2497474,0.33084 0.432015,0.43667 0.1732236,0.0962 0.3701035,0.14677 0.5896281,0.15296 v -5.2e-4 c 0.01519,4.3e-4 0.030085,0.001 0.045475,0.001 0.02096,0 0.042318,-8.9e-4 0.063562,-0.002 l 0.1555461,-0.32711 v -5.2e-4 c -0.039279,0.009 -0.078493,0.016 -0.1178223,0.0202 -0.03369,0.004 -0.06757,0.006 -0.1012858,0.006 -0.1763846,0 -0.3324419,-0.04 -0.4676717,-0.11938 -0.1352318,-0.0794 -0.2425722,-0.1879 -0.3219442,-0.32607 -0.06035,-0.10909 -0.09582,-0.23164 -0.1085205,-0.36639 h 1.1647868 0.2180746 5.167e-4 v -5.2e-4 h 0.108004 l 0.2041219,-0.42788 0.1333252,-0.28008 c -0.00871,-0.0199 -0.017075,-0.0396 -0.026872,-0.0589 -0.00893,-0.0176 -0.019266,-0.0337 -0.028939,-0.0507 v -5.1e-4 -5.2e-4 c -0.038012,-0.066 -0.082012,-0.12602 -0.1312581,-0.18035 -0.065929,-0.0727 -0.1415782,-0.13507 -0.2278931,-0.18655 -0.1646286,-0.1029 -0.358454,-0.15452 -0.5818766,-0.15452 z m 0,0.30438 c 0.1646266,0 0.3056392,0.0383 0.42323,0.11472 0.096227,0.061 0.1740634,0.14133 0.234611,0.23978 l 0.0031,-0.006 0.0062,0.0217 c -0.00305,-0.005 -0.00616,-0.0104 -0.0093,-0.0155 l -0.1307414,0.2744 -0.059428,0.12506 H -1.786971 c 0.01504,-0.11027 0.043853,-0.21236 0.088883,-0.30438 0.07056,-0.1411 0.1686607,-0.25136 0.2950725,-0.33073 0.1264116,-0.0794 0.2737491,-0.11885 0.4413167,-0.11885 z" /></g></svg>
